<svg width="334" height="480" viewBox="0 0 334 480" fill="none" xmlns="http://www.w3.org/2000/svg">
<path d="M191.73 6.61999C189 -1.96001 182.59 0.319993 172.86 0.319993C163.13 0.319993 174.07 23.58 174.07 52.51C174.07 81.44 163.12 105 172.86 105C182.6 105 197.12 23.8 191.73 6.61999Z" fill="white"/>
<path d="M333.62 37.4C337.17 48.4 315.86 94.21 257.93 94.21C218.03 94.21 185.79 97.07 182.23 86.1C178.67 75.13 229.91 37.64 249.81 30.31C267.34 23.85 330.1 26.43 333.62 37.4Z" fill="white"/>
<path d="M323.36 399.09C313.09 468.22 256.05 467.19 237.91 433.15C297.47 376.98 282.75 344.2 258.33 322.51C236.57 303.17 199.55 320.11 186.86 346.33C174.17 372.55 171.53 388.89 188.08 422.94C76.42 466.68 42.91 419.75 42.91 344.77C42.91 269.79 84.12 168 151.77 148.08C183.33 138.74 211.66 148.34 228.95 175.59C256.05 201.65 309.39 181.23 251.17 131.59C86.64 35 0 270.38 0 364.74C0 463.33 83 502.23 203.5 452.22C277.06 523.36 348.54 440 323.36 399.09ZM219.06 402.74C198.64 373.57 204.88 359.62 215.19 350.18C227.91 338.54 244.36 339.58 249.24 351.44C257.55 371.64 243.25 389.14 219.06 402.74Z" fill="white"/>
</svg>
